<svg width="563" height="500" xmlns="http://www.w3.org/2000/svg">
    <g fill="#383838">
        <circle cx="281.529" cy="249.628" r="50.167"/>
        <path d="M281.529 159.628c64.818 0 126.39 9.138 173.2 25.253 51.99 17.898 83.701 44.359 83.701 64.747 0 21.718-34.248 49.912-89.857 68.337-44.271 14.668-103.504 22.663-167.044 22.663-66.75 0-126.651-7.84-170.409-22.796-27.394-9.363-50.017-21.532-65.523-34.811-13.934-11.933-20.969-23.78-20.969-33.393 0-20.457 30.499-46.55 81.366-64.285 46.83-16.326 109.91-25.715 175.535-25.715zm0-24c-68.175 0-133.897 9.782-183.436 27.053C38.613 183.418.628 215.917.628 249.628c0 34.817 40.778 69.739 102.73 90.914 46.567 15.917 108.986 24.086 178.171 24.086 65.936 0 127.66-8.331 174.592-23.881 64.405-21.34 106.309-55.836 106.309-91.119 0-33.833-39.21-66.55-99.888-87.44-49.48-17.033-113.668-26.56-181.013-26.56z"/>
        <path d="M203.131 204.917c32.38-56.149 71.058-104.923 108.403-137.423 41.476-36.095 80.24-50.347 97.902-40.162 18.814 10.85 26.129 54.604 14.309 111.98-9.41 45.679-32.076 100.984-63.818 156.027-33.347 57.825-70.062 105.798-104.88 136.232-21.796 19.053-43.64 32.572-62.89 39.37-17.297 6.11-31.075 6.285-39.402 1.483-17.721-10.22-25.089-49.675-15.04-102.6 9.251-48.722 32.63-108.055 65.416-164.907zm-20.79-11.99c-34.06 59.06-58.418 120.88-68.204 172.42-11.75 61.885-2.575 111.026 26.628 127.867 30.163 17.394 80.785-.485 130.078-43.573 37.053-32.389 75.311-82.379 109.874-142.312 32.94-57.119 56.558-114.75 66.534-163.175 13.69-66.451 4.74-119.987-25.825-137.612-29.309-16.902-77.24.72-125.648 42.848-39.474 34.353-79.794 85.199-113.437 143.537z"/>
        <path d="M203.206 295.47c-32.474-56.095-55.414-113.962-64.92-162.547-10.558-53.96-3.546-94.662 14.099-104.877 18.795-10.88 60.356 4.633 104.16 43.528 34.876 30.965 71.47 78.22 103.306 133.212 33.443 57.769 56.67 113.536 65.65 158.9 5.621 28.4 6.424 54.075 2.7 74.148-3.346 18.037-10.075 30.06-18.394 34.877-17.705 10.25-55.567-3.072-96.4-38.21-37.59-32.347-77.32-82.235-110.2-139.031zm-20.77 12.024c34.158 59.003 75.552 110.98 115.317 145.199 47.746 41.087 94.903 57.678 124.078 40.788 30.133-17.444 39.926-70.23 27.213-134.455-9.556-48.277-33.76-106.39-68.423-166.264-33.036-57.065-71.17-106.308-108.14-139.134C221.746 8.58 170.895-10.402 140.36 7.276c-29.28 16.95-37.951 67.277-25.629 130.255 10.049 51.356 33.963 111.68 67.704 169.963z"/>
    </g>
</svg>
