<svg width="48" height="43" xmlns="http://www.w3.org/2000/svg">
    <g fill="#000">
        <circle cx="23.5" cy="20.5" r="4.5"/>
        <path d="M24 13.096c5.538 0 10.799.798 14.798 2.206 4.442 1.563 7.151 3.874 7.151 5.654 0 1.897-2.926 4.36-7.677 5.969-3.782 1.28-8.843 1.979-14.272 1.979-5.703 0-10.821-.685-14.56-1.991-2.34-.818-4.273-1.88-5.598-3.04-1.19-1.042-1.791-2.077-1.791-2.917 0-1.786 2.605-4.065 6.951-5.614 4.002-1.426 9.391-2.246 14.998-2.246zM24 11c-5.825 0-11.44.854-15.673 2.363C3.245 15.173 0 18.013 0 20.956c0 3.041 3.484 6.091 8.777 7.94C12.756 30.286 18.09 31 24 31c5.634 0 10.907-.728 14.917-2.086C44.42 27.051 48 24.038 48 20.956c0-2.955-3.35-5.812-8.534-7.636C35.238 11.832 29.754 11 24 11z"/>
        <path d="M16.914 17.62c2.727-4.832 5.985-9.03 9.13-11.827 3.493-3.106 6.758-4.333 8.246-3.456 1.584.934 2.2 4.7 1.205 9.637-.793 3.932-2.702 8.691-5.375 13.429-2.809 4.976-5.901 9.105-8.834 11.724-1.835 1.64-3.675 2.804-5.296 3.389-1.457.526-2.618.54-3.319.127-1.493-.88-2.113-4.275-1.267-8.83.78-4.193 2.749-9.3 5.51-14.192zm-1.751-1.031c-2.869 5.083-4.92 10.403-5.745 14.839-.99 5.326-.216 9.555 2.243 11.005 2.54 1.497 6.804-.042 10.956-3.75 3.12-2.788 6.343-7.09 9.254-12.248 2.774-4.916 4.763-9.876 5.604-14.044 1.153-5.72.399-10.327-2.175-11.844C32.83-.907 28.794.61 24.717 4.235c-3.325 2.957-6.72 7.333-9.554 12.354z"/>
        <path d="M16.89 25.384c-2.729-4.831-4.656-9.815-5.455-13.999-.887-4.647-.297-8.152 1.185-9.032 1.579-.937 5.07.399 8.75 3.749 2.93 2.666 6.005 6.736 8.68 11.472 2.81 4.975 4.761 9.778 5.515 13.684.473 2.446.54 4.657.227 6.386-.28 1.554-.846 2.589-1.545 3.004-1.488.883-4.668-.265-8.099-3.29-3.158-2.787-6.496-7.083-9.258-11.974zm-1.745 1.035c2.87 5.082 6.347 9.558 9.688 12.505 4.011 3.538 7.973 4.967 10.424 3.513 2.532-1.503 3.354-6.049 2.286-11.58-.803-4.157-2.836-9.162-5.748-14.319-2.776-4.914-5.98-9.155-9.085-11.982C18.447.676 14.175-.958 11.61.564 9.15 2.024 8.42 6.358 9.457 11.782c.844 4.423 2.853 9.618 5.688 14.637z"/>
    </g>
</svg>