<svg width="49px" height="46px" viewBox="0 0 49 46" version="1.1" xmlns="http://www.w3.org/2000/svg" xmlns:xlink="http://www.w3.org/1999/xlink">
    <g id="Page-1" stroke="none" stroke-width="1" fill="none" fill-rule="evenodd">
        <g id="redux-logo" transform="translate(-15.000000, -15.000000)" fill-rule="nonzero" fill="#764ABC">
            <path d="M47.9704087,46.5721519 C49.7264206,46.3898734 51.0585675,44.8708861 50.9980154,43.0481013 C50.9374633,41.2253165 49.4236599,39.7670886 47.6070959,39.7670886 L47.4859917,39.7670886 C45.6088755,39.8278481 44.1556243,41.4075949 44.2161765,43.2911392 C44.2767286,44.2025316 44.6400414,44.9924051 45.1850106,45.5392405 C43.1262381,49.6101266 39.9775271,52.5873418 35.2544607,55.078481 C32.0451976,56.7797468 28.7148303,57.3873418 25.384463,56.9620253 C22.659617,56.5974684 20.5402923,55.3822785 19.2081454,53.3772152 C17.2704771,50.4 17.0888207,47.1797468 18.7237283,43.9594937 C19.8742188,41.6506329 21.6907828,39.9493671 22.8412734,39.0987342 C22.5990648,38.3088608 22.235752,36.9721519 22.0540956,36 C13.2740363,42.3797468 14.1823183,51.0075949 16.8466122,55.078481 C18.8448326,58.1164557 22.9018255,60 27.3826834,60 C28.593726,60 29.8047687,59.878481 31.0158114,59.5746835 C38.7664845,58.0556962 44.6400414,53.4379747 47.9704087,46.5721519 L47.9704087,46.5721519 Z" id="Shape"></path>
            <path d="M59.9684394,39.3984526 C55.2785996,33.8897485 48.3672566,30.8568665 40.468579,30.8568665 L39.4812443,30.8568665 C38.9258685,29.7427466 37.7534085,29 36.4575317,29 L36.3341149,29 C34.4211539,29.0618956 32.9401518,30.6711799 33.0018602,32.589942 C33.0635687,34.4468085 34.6062791,35.9323017 36.4575317,35.9323017 L36.5809486,35.9323017 C37.9385338,35.8704062 39.1109937,35.0038685 39.6046611,33.827853 L40.7154126,33.827853 C45.4052525,33.827853 49.8482587,35.1895551 53.8593059,37.8510638 C56.9447269,39.893617 59.16623,42.5551257 60.4003984,45.7736944 C61.4494415,48.3733075 61.3877331,50.9110251 60.2769815,53.0773694 C58.5491458,56.3578337 55.6488501,58.1528046 51.8229281,58.1528046 C49.3545913,58.1528046 47.0096714,57.410058 45.775503,56.8529981 C45.0967104,57.4719536 43.862542,58.4622824 42.9986242,59.0812379 C45.6520862,60.3191489 48.3672566,61 50.9590102,61 C56.8830185,61 61.2643162,57.7195358 62.9304436,54.4390716 C64.7199877,50.8491296 64.5965709,44.6595745 59.9684394,39.3984526 Z" id="Shape"></path>
            <path d="M28.4345298,47.7162162 C28.4963814,49.5405405 30.0426721,51 31.898221,51 L32.0219242,51 C33.9393247,50.9391892 35.4237637,49.3581081 35.3619121,47.472973 C35.3000605,45.6486486 33.7537698,44.1891892 31.898221,44.1891892 L31.7745177,44.1891892 C31.6508144,44.1891892 31.4652596,44.1891892 31.3415563,44.25 C28.8056396,40.1148649 27.7541619,35.6148649 28.1252717,30.75 C28.3726782,27.1013514 29.6097107,23.9391892 31.7745177,21.3243243 C33.5682149,19.0743243 37.0319061,17.9797297 39.3822679,17.9189189 C45.9385405,17.7972973 48.7218637,25.8243243 48.9074186,29.0472973 C49.7114898,29.2297297 51.0722256,29.6554054 52,29.9594595 C51.2577805,20.1081081 45.0726177,15 39.1348614,15 C33.5682149,15 28.4345298,18.9527027 26.3934261,24.7905405 C23.5482512,32.5743243 25.4038,40.0540541 28.8674912,45.9527027 C28.5582331,46.3783784 28.3726782,47.0472973 28.4345298,47.7162162 L28.4345298,47.7162162 Z" id="Shape"></path>
        </g>
    </g>
</svg>