<svg width="49" height="46" xmlns="http://www.w3.org/2000/svg">
    <g fill="#000">
        <path d="M32.97 31.572c1.756-.182 3.089-1.701 3.028-3.524a3.407 3.407 0 0 0-3.39-3.28h-.122c-1.877.06-3.33 1.64-3.27 3.523.06.912.424 1.701.969 2.248-2.059 4.071-5.207 7.048-9.93 9.54-3.21 1.7-6.54 2.308-9.87 1.883-2.725-.365-4.845-1.58-6.177-3.585-1.938-2.977-2.12-6.197-.484-9.418 1.15-2.308 2.967-4.01 4.117-4.86-.242-.79-.605-2.127-.787-3.099-8.78 6.38-7.872 15.008-5.207 19.078C3.845 43.116 7.902 45 12.383 45c1.21 0 2.422-.122 3.633-.425 7.75-1.52 13.624-6.137 16.954-13.003z"/>
        <path d="M44.968 24.398c-4.69-5.508-11.6-8.541-19.5-8.541h-.987A3.39 3.39 0 0 0 21.458 14h-.124c-1.913.062-3.394 1.671-3.332 3.59a3.471 3.471 0 0 0 3.456 3.342h.123a3.476 3.476 0 0 0 3.024-2.104h1.11c4.69 0 9.133 1.362 13.144 4.023 3.086 2.043 5.307 4.704 6.541 7.923 1.05 2.6.988 5.137-.123 7.303-1.728 3.28-4.628 5.076-8.454 5.076-2.468 0-4.813-.743-6.047-1.3a36.458 36.458 0 0 1-2.777 2.228C30.652 45.32 33.367 46 35.959 46c5.924 0 10.305-3.28 11.971-6.56 1.79-3.59 1.667-9.78-2.962-15.042z"/>
        <path d="M13.435 32.716C13.496 34.541 15.043 36 16.898 36h.124c1.917-.06 3.402-1.642 3.34-3.527-.062-1.824-1.608-3.284-3.464-3.284h-.123c-.124 0-.31 0-.433.061-2.536-4.135-3.588-8.635-3.217-13.5.248-3.649 1.485-6.81 3.65-9.426 1.793-2.25 5.257-3.344 7.607-3.405 6.557-.122 9.34 7.905 9.525 11.128.804.183 2.165.608 3.093.912C36.258 5.11 30.073 0 24.135 0c-5.567 0-10.7 3.953-12.742 9.79-2.845 7.784-.99 15.264 2.474 21.163-.309.425-.494 1.094-.432 1.763z"/>
    </g>
</svg>