<svg width="48" height="48" xmlns="http://www.w3.org/2000/svg">
    <path fill="#000"
          d="M15.96 0L0 9.24v21.12C0 40.08 7.8 48 17.52 48c3.24 0 6.24-.84 8.88-2.28l12.96-7.44C44.52 35.52 48 30.24 48 24V1.92L44.88.12 31.2 7.44v23.04c0 .96-.12 1.92-.24 2.88-.24.96-.48 1.8-.84 2.64l-.36.72c-.48 0-3.48-1.08-5.04-2.16-.72-.48-1.32-.96-1.92-1.56-.6-.6-1.08-1.2-1.56-1.92s-.84-1.44-1.2-2.16c-.36-.72-.6-1.56-.72-2.4-.12-.84-.12-1.68-.12-2.52V1.92L15.96 0zm7.8 43.44c-.84.36-2.04.84-3 1.08-.96.24-1.8.24-2.76.24-.96 0-1.92-.12-2.88-.36s-1.8-.48-2.64-.84c-.84-.36-1.68-.84-2.4-1.32C7.92 40.92 6.84 39.72 6 38.4c-.48-.72-.96-1.56-1.32-2.4-.36-.84-.6-1.8-.84-2.76-.24-.96-.24-1.92-.24-2.88V11.04l12-7.32V24c0 7.68 5.64 14.16 12.84 15.72-.24.36-.48.72-.84.96-1.32 1.32-2.4 2.16-3.84 2.76zm20.4-16.8c-.12.84-.48 1.68-.72 2.4-.36.72-.72 1.44-1.2 2.16-.48.72-1.92 2.52-3.84 3.6s-3.72 1.44-4.8 1.68c.72-1.92 1.2-3.84 1.2-6V9.24l9.6-5.52V24c0 .96 0 1.8-.24 2.64z"/>
</svg>